<svg width="220" height="115" xmlns="http://www.w3.org/2000/svg" xmlns:xlink="http://www.w3.org/1999/xlink" viewBox="0 0 220 115">

 <g>
  <title>OpenCraft Logo</title>
  <style type="text/css">.st0{fill:#FFFFFF;stroke:#FFFFFF;stroke-miterlimit:10;}</style>
  <symbol viewBox="-100.4 -50.7 200.9 101.3" id="svg_7">
   <path id="svg_9" d="m-73,-27.3l9.5,0l0,9.5l-9.5,0l0,-9.5zm140.4,0.8l9.5,0l0,9.5l-9.5,0l0,-9.5zm-151.1,57c1.5,1.6 2.5,3.8 2.5,6.2c0,2.3 -0.9,4.5 -2.5,6.2c-1.4,1.6 -3.6,2.6 -5.9,2.6c-2.4,0 -4.5,-1 -6,-2.6c-1.5,-1.6 -2.4,-3.8 -2.4,-6.2c0,-2.4 0.9,-4.6 2.4,-6.2c1.6,-1.7 3.7,-2.6 6,-2.6c2.3,0 4.5,1 5.9,2.6m-0.3,6.2c0,-1.7 -0.7,-3.2 -1.7,-4.3c-1,-1.1 -2.4,-1.7 -3.9,-1.7c-1.6,0 -2.9,0.6 -4,1.7c-1,1.1 -1.7,2.6 -1.7,4.3s0.6,3.2 1.7,4.3c1,1.1 2.4,1.8 4,1.8c1.5,0 2.8,-0.7 3.9,-1.8c1,-1.1 1.7,-2.6 1.7,-4.3m13,12.1l0,-14.2c0,-0.7 0.6,-1.3 1.3,-1.3c0.7,0 1.3,0.5 1.3,1c0.9,-0.6 2.1,-1 3.3,-1c3.3,0 5.9,2.8 5.9,6.2c0,3.4 -2.7,6.1 -5.9,6.1c-1.2,0 -2.4,-0.4 -3.3,-1l0,4.3c0,0.7 -0.6,1.3 -1.4,1.3c-0.6,0 -1.2,-0.7 -1.2,-1.4m2.7,-9.4c0,1 0.3,1.9 1,2.5c0.6,0.7 1.4,1 2.3,1c0.8,0 1.7,-0.3 2.3,-1c0.6,-0.6 1,-1.5 1,-2.5c0,-1 -0.4,-1.8 -1,-2.5c-0.6,-0.7 -1.5,-1 -2.3,-1c-0.9,0 -1.7,0.3 -2.3,1c-0.7,0.7 -1,1.6 -1,2.5m18.1,0c0,-3.3 2.6,-6.1 6,-6.1c3.2,0 5.7,2.4 5.9,5.7l0,0.1c0,0 0,0.2 0,0.2c-0.1,0.6 -0.6,1 -1.3,1l-7.8,0c0.1,0.6 0.4,1.2 0.8,1.6c0.5,0.6 1.5,1 2.4,1.1c0.9,0.1 1.9,-0.1 2.6,-0.6c0.5,-0.5 1.5,-0.5 1.8,-0.1c0.3,0.3 0.6,1.1 0,1.6c-1.2,1.1 -2.7,1.6 -4.4,1.6c-3.4,0 -6,-2.8 -6,-6.1m2.6,-1.2l6.9,0c-0.2,-1 -1.5,-2.4 -3.6,-2.6c-2,0.1 -3.1,1.6 -3.3,2.6m29.1,0.2l0,5.9c0,0.7 -0.6,1.3 -1.3,1.3c-0.7,0 -1.3,-0.6 -1.3,-1.3l0,-5.9c0,-1.4 -1.2,-2.5 -2.6,-2.5c-1.4,0 -2.5,1.1 -2.5,2.5l0,5.9c0,0.1 0,0.1 0,0.2c-0.1,0.6 -0.7,1.1 -1.3,1.1c-0.7,0 -1.3,-0.6 -1.3,-1.3c0,0 0,0 0,0l0,-9.7c0,-0.7 0.6,-1.3 1.3,-1.3c0,0 0,0 0,0c0.5,0 1,0.3 1.2,0.8c0.7,-0.5 1.6,-0.8 2.6,-0.8c2.9,0 5.2,2.3 5.2,5.1m9.9,-1.7c0,-4.9 4.1,-8.8 9,-8.8c2.2,0 4.1,0.7 5.7,1.9c0.6,0.5 0.7,1.4 0.2,2c-0.5,0.6 -1.4,0.7 -2,0.3c-1.1,-0.9 -2.4,-1.4 -4,-1.4c-1.7,0 -3.3,0.7 -4.4,1.8c-1.1,1.1 -1.8,2.6 -1.8,4.3s0.8,3.1 1.9,4.2c1.2,1.1 2.7,1.8 4.4,1.8c1.5,0 2.8,-0.5 4,-1.4c0.6,-0.4 1.5,-0.3 2,0.3c0.4,0.6 0.3,1.5 -0.2,2c-1.5,1.2 -3.5,1.9 -5.7,1.9c-5,-0.1 -9,-4 -9.1,-8.9m32.7,-2.1c0,0.7 -0.6,1.3 -1.3,1.3c-0.6,0 -1.1,0.1 -1.5,0.5c-0.5,0.3 -0.8,0.7 -1.1,1.2c-0.6,0.8 -0.9,1.7 -1,2.1l0,4.7c0,0.7 -0.6,1.3 -1.3,1.3c-0.7,0 -1.3,-0.6 -1.3,-1.3l0,-9.7c0,-0.7 0.6,-1.3 1.3,-1.3c0.7,0 1.3,0.6 1.3,1.3l0,0.2c0.1,-0.2 0.3,-0.4 0.5,-0.5c0.8,-0.5 1.9,-1 3.1,-1c0.7,-0.1 1.3,0.5 1.3,1.2m18.6,4.8l0,4.8c0,0.7 -0.6,1.3 -1.3,1.3c-0.6,0 -1.1,-0.5 -1.3,-1.1c-0.9,0.7 -2,1.1 -3.3,1.1c-1.7,0 -3.1,-0.7 -4.2,-1.8c-1.1,-1.1 -1.7,-2.7 -1.7,-4.3c0,-1.7 0.6,-3.2 1.7,-4.3c1.1,-1.1 2.5,-1.8 4.2,-1.8c1.2,0 2.3,0.4 3.3,1.1c0.1,-0.6 0.6,-1.1 1.3,-1.1c0.7,0 1.3,0.6 1.3,1.3l0,4.8zm-2.6,0c0,-1 -0.4,-1.9 -1,-2.5c-0.6,-0.7 -1.4,-1 -2.3,-1c-0.9,0 -1.7,0.3 -2.3,1c-0.6,0.6 -0.9,1.5 -0.9,2.5c0,1 0.3,1.9 0.9,2.5c0.6,0.6 1.4,1 2.3,1c0.9,0 1.7,-0.3 2.3,-1c0.6,-0.6 1,-1.5 1,-2.5m17.1,-6.9l0,0.3l0.7,0c0.7,0 1.3,0.6 1.3,1.3c0,0 0,0 0,0c0,0.7 -0.6,1.4 -1.3,1.4l-0.7,0l0,8.7c0,0.7 -0.6,1.3 -1.3,1.3c0,0 0,0 0,0c-0.7,0 -1.3,-0.6 -1.4,-1.3c0,0 0,0 0,0l0,-8.7l-0.6,0c-0.8,0 -1.4,-0.6 -1.4,-1.4c0,-0.8 0.6,-1.3 1.4,-1.3l0.6,0l0,-0.3c0,-0.9 0.1,-1.7 0.5,-2.4c0.3,-0.7 1,-1.3 1.8,-1.5c0.5,-0.1 1,-0.2 1.5,-0.2c0.7,0 1.3,0.6 1.3,1.4c0,0.8 -0.6,1.4 -1.3,1.4c-0.3,0 -0.5,0 -0.6,0.1c-0.1,0 -0.1,0 -0.1,0.1c-0.2,-0.2 -0.4,0.1 -0.4,1.1m16,2.1c0,0.7 -0.6,1.4 -1.4,1.4l-0.6,0l0,6.9c0.8,0 1.4,0.6 1.4,1.4s-0.6,1.4 -1.4,1.4c-1.5,0 -2.7,-1.2 -2.7,-2.7l0,-7l-0.7,0c-0.7,0 -1.3,-0.6 -1.3,-1.3c0,0 0,0 0,0c0,-0.8 0.6,-1.3 1.3,-1.3l0.7,0l0,-3.6c0,-0.8 0.6,-1.4 1.4,-1.4c0.8,0 1.4,0.6 1.4,1.4l0,3.6l0.6,0c0.7,-0.1 1.3,0.5 1.3,1.2m21.2,8.7c0,0.9 -0.7,1.6 -1.6,1.6c0,0 0,0 0,0l-8.1,0c-0.9,0 -1.6,-0.7 -1.6,-1.6c0,-0.9 0.7,-1.6 1.6,-1.6l8.1,0c0.9,0 1.6,0.7 1.6,1.6c0,0 0,0 0,0" class="st0"/>
   <path id="svg_10" d="m41.3,-50.2l0,22.4l-82.7,0l0,-22.4l-58.6,0l0,56.9l58.6,0l0,-29.3l82.7,0l0,29.3l58.6,0l0,-56.9l-58.6,0zm-87.8,51.7l-48.2,0l0,-46.5l48.2,0l0,46.5zm141.3,0l-48.3,0l0,-46.5l48.2,0l0.1,46.5l0,0z" class="st0"/>
   <path id="svg_11" d="m-15.7,-6c3.9,5.8 9.7,10.5 16.9,10.4c7,-0.1 12.5,-5.2 15.4,-11.2c1.2,-2.6 -2.6,-4.8 -3.9,-2.3c-2.2,4.5 -5.8,8.6 -11.1,9c-5.7,0.4 -10.5,-3.7 -13.5,-8.1c-1.6,-2.4 -5.4,-0.1 -3.8,2.2" class="st0"/>
  </symbol>
  <g id="svg_12">
   <use xlink:href="#svg_7" y="7.3" x="10.64999" id="svg_6" height="101.3" width="200.9" />
  </g>
 </g>
</svg>
